<svg width="24" height="24" viewBox="0 0 24 24" fill="none" xmlns="http://www.w3.org/2000/svg">
<path d="M16.41 3.99975C18.35 3.99975 19.91 5.56975 19.91 7.49975C19.91 9.38975 18.41 10.9297 16.54 10.9997C16.4536 10.9897 16.3664 10.9897 16.28 10.9997M18.34 19.9997C19.06 19.8497 19.74 19.5597 20.3 19.1297C21.86 17.9597 21.86 16.0297 20.3 14.8597C19.75 14.4397 19.08 14.1597 18.37 13.9997M9.15997 10.8697C9.05997 10.8597 8.93997 10.8597 8.82997 10.8697C7.68217 10.8308 6.59461 10.3466 5.7976 9.51971C5.00059 8.69283 4.55671 7.5882 4.55997 6.43975C4.55997 3.98975 6.53997 1.99975 8.99997 1.99975C10.1762 1.97853 11.3127 2.42544 12.1594 3.24216C13.0061 4.05888 13.4938 5.17851 13.515 6.35475C13.5362 7.53098 13.0893 8.66747 12.2726 9.5142C11.4558 10.3609 10.3362 10.8485 9.15997 10.8697ZM4.15997 14.5597C1.73997 16.1797 1.73997 18.8197 4.15997 20.4297C6.90997 22.2697 11.42 22.2697 14.17 20.4297C16.59 18.8097 16.59 16.1697 14.17 14.5597C11.43 12.7297 6.91997 12.7297 4.15997 14.5597Z" stroke="#081725" stroke-width="1.5" stroke-linecap="round" stroke-linejoin="round"/>
</svg>
