<svg width="32" height="32" viewBox="0 0 32 32" fill="none" xmlns="http://www.w3.org/2000/svg">
<path d="M14.75 3.5H12.25C6 3.5 3.5 6 3.5 12.25V19.75C3.5 26 6 28.5 12.25 28.5H19.75C26 28.5 28.5 26 28.5 19.75V17.25" stroke="#081725" stroke-width="1.5" stroke-linecap="round" stroke-linejoin="round"/>
<path d="M21.0501 4.77507L11.2001 14.6251C10.8251 15.0001 10.4501 15.7376 10.3751 16.2751L9.83759 20.0376C9.63759 21.4001 10.6001 22.3501 11.9626 22.1626L15.7251 21.6251C16.2501 21.5501 16.9876 21.1751 17.3751 20.8001L27.2251 10.9501C28.9251 9.25007 29.7251 7.27507 27.2251 4.77507C24.7251 2.27507 22.7501 3.07507 21.0501 4.77507Z" stroke="#081725" stroke-width="1.5" stroke-miterlimit="10" stroke-linecap="round" stroke-linejoin="round"/>
<path d="M19.6375 6.1875C20.0519 7.65933 20.8374 9.00008 21.9186 10.0813C22.9999 11.1625 24.3406 11.948 25.8125 12.3625" stroke="#081725" stroke-width="1.5" stroke-miterlimit="10" stroke-linecap="round" stroke-linejoin="round"/>
</svg>
