<svg width="23" height="24" viewBox="0 0 23 24" fill="none" xmlns="http://www.w3.org/2000/svg">
<path d="M11.4997 4C9.12317 4 7.19575 5.89339 7.19575 8.22796C7.19575 10.5625 9.12317 12.4559 11.4997 12.4559C13.8762 12.4559 15.8036 10.5625 15.8036 8.22796C15.8036 5.89339 13.8762 4 11.4997 4ZM11.4997 5.10295C13.2587 5.10295 14.6809 6.50001 14.6809 8.22796C14.6809 9.95591 13.2587 11.353 11.4997 11.353C9.74069 11.353 8.31852 9.95591 8.31852 8.22796C8.31852 6.50001 9.74069 5.10295 11.4997 5.10295ZM11.4997 13.9265C8.4308 13.9265 5.5866 15.5625 4.07086 18.1728C3.92116 18.4301 4.01457 18.7793 4.29527 18.9264C4.38883 18.9815 4.48239 19 4.57596 19C4.76309 19 4.96885 18.9081 5.06242 18.7243C6.37231 16.4448 8.84248 15.0295 11.4997 15.0295C14.1569 15.0295 16.627 16.4448 17.9556 18.7243C18.1053 18.9816 18.4421 19.0735 18.7228 18.9264C18.9847 18.7793 19.0782 18.4485 18.9285 18.1728C17.4128 15.5625 14.5686 13.9265 11.4997 13.9265Z" fill="#2987E5"/>
</svg>
