<svg width="23" height="24" viewBox="0 0 23 24" fill="none" xmlns="http://www.w3.org/2000/svg">
<path d="M12 4C10.8626 4.02674 9.7822 4.49488 8.99514 5.30206C8.20808 6.10924 7.77837 7.18978 7.8 8.30737V10.1533H6V20H18V10.1541H16.2V8.30737C16.2216 7.18978 15.7919 6.10924 15.0049 5.30206C14.2178 4.49488 13.1374 4.02674 12 4ZM12 5.23116C12.403 5.23859 12.8005 5.3242 13.1696 5.48307C13.5388 5.64193 13.8724 5.87093 14.1512 6.15688C14.43 6.44283 14.6485 6.78011 14.7942 7.14931C14.9398 7.51851 15.0098 7.91236 15 8.30821V10.1541H9V8.30737C8.99033 7.91159 9.06037 7.51783 9.20609 7.14872C9.35181 6.77962 9.57034 6.44245 9.84912 6.15658C10.1279 5.87072 10.4614 5.6418 10.8306 5.48299C11.1997 5.32417 11.5971 5.23859 12 5.23116ZM7.2 11.3844H16.8V18.7688H7.2V11.3844ZM9.6 14.4615C9.47508 14.4563 9.35143 14.4879 9.24496 14.5523C9.13848 14.6167 9.05405 14.7109 9.00253 14.8228C8.95101 14.9348 8.93474 15.0593 8.95584 15.1803C8.97693 15.3014 9.03441 15.4135 9.12088 15.5023C9.20736 15.591 9.31887 15.6522 9.44109 15.6782C9.5633 15.7041 9.69062 15.6936 9.80666 15.6478C9.92271 15.6021 10.0222 15.5233 10.0923 15.4216C10.1624 15.3199 10.1999 15.1999 10.2 15.0771C10.2032 14.9173 10.1419 14.7629 10.0294 14.6475C9.91697 14.5321 9.76255 14.4652 9.6 14.4615ZM12 14.4615C11.8751 14.4563 11.7514 14.4879 11.645 14.5523C11.5385 14.6167 11.4541 14.7109 11.4025 14.8228C11.351 14.9348 11.3347 15.0593 11.3558 15.1803C11.3769 15.3014 11.4344 15.4135 11.5209 15.5023C11.6074 15.591 11.7189 15.6522 11.8411 15.6782C11.9633 15.7041 12.0906 15.6936 12.2067 15.6478C12.3227 15.6021 12.4222 15.5233 12.4923 15.4216C12.5624 15.3199 12.5999 15.1999 12.6 15.0771C12.6032 14.9173 12.5419 14.7629 12.4294 14.6475C12.317 14.5321 12.1626 14.4652 12 14.4615ZM14.4 14.4615C14.2751 14.4563 14.1514 14.4879 14.045 14.5523C13.9385 14.6167 13.8541 14.7109 13.8025 14.8228C13.751 14.9348 13.7347 15.0593 13.7558 15.1803C13.7769 15.3014 13.8344 15.4135 13.9209 15.5023C14.0074 15.591 14.1189 15.6522 14.2411 15.6782C14.3633 15.7041 14.4906 15.6936 14.6067 15.6478C14.7227 15.6021 14.8222 15.5233 14.8923 15.4216C14.9624 15.3199 14.9999 15.1999 15 15.0771C15.0032 14.9173 14.9419 14.7629 14.8294 14.6475C14.717 14.5321 14.5626 14.4652 14.4 14.4615Z" fill="#2987E5"/>
</svg>
