<svg width="20" height="20" viewBox="0 0 20 20" fill="none" xmlns="http://www.w3.org/2000/svg">
<g clip-path="url(#clip0_1368_85)">
<path d="M12.9833 10C12.9833 10.59 12.8083 11.1668 12.4805 11.6574C12.1527 12.1481 11.6867 12.5304 11.1416 12.7562C10.5965 12.982 9.99663 13.0411 9.41792 12.926C8.83921 12.8109 8.30763 12.5268 7.8904 12.1095C7.47317 11.6923 7.18904 11.1607 7.07393 10.582C6.95881 10.0033 7.01789 9.40346 7.2437 8.85833C7.4695 8.31319 7.85188 7.84726 8.34248 7.51945C8.83309 7.19163 9.40989 7.01666 9.99994 7.01666C10.3918 7.01623 10.78 7.09309 11.1421 7.24286C11.5043 7.39264 11.8333 7.61237 12.1104 7.88948C12.3876 8.1666 12.6073 8.49565 12.7571 8.85781C12.9068 9.21996 12.9837 9.6081 12.9833 10Z" stroke="#2987E5" stroke-width="1.5" stroke-linecap="round" stroke-linejoin="round"/>
<path d="M10.0001 16.8916C12.9417 16.8916 15.6834 15.1583 17.5917 12.1583C17.9606 11.4972 18.1542 10.7528 18.1542 9.99581C18.1542 9.2388 17.9606 8.49438 17.5917 7.83331C15.6792 4.83331 12.9417 3.09998 10.0001 3.09998C7.05841 3.09998 4.31674 4.83331 2.40841 7.83331C2.03957 8.49438 1.84595 9.2388 1.84595 9.99581C1.84595 10.7528 2.03957 11.4972 2.40841 12.1583C4.31674 15.1583 7.05841 16.8916 10.0001 16.8916Z" stroke="#2987E5" stroke-width="1.5" stroke-linecap="round" stroke-linejoin="round"/>
</g>
<defs>
<clipPath id="clip0_1368_85">
<rect width="20" height="20" fill="white"/>
</clipPath>
</defs>
</svg>
